<?xml version="1.0" encoding="utf-8"?>
<svg version="1.1" id="Шар_1" xmlns="http://www.w3.org/2000/svg" xmlns:xlink="http://www.w3.org/1999/xlink" x="0px" y="0px"
	 viewBox="0 0 171 61" style="enable-background:new 0 0 171 61;" xml:space="preserve">
<style type="text/css">
	.st0{fill:#21C0F1;}
	.st1{fill:#636466;}
</style>
<g id="XMLID_2_">
	<circle id="XMLID_12_" class="st0" cx="119.3" cy="7.1" r="6.1"/>
	<path id="XMLID_11_" class="st1" d="M29.8,0.1v12.4h0v8.4v3.2v13.8c0,1.8-1.4,3.2-3.2,3.2H11.8c-1.8,0-3.2-1.4-3.2-3.2V24.1l0,0
		c0-1.8,1.4-3.2,3.2-3.2h15.4v-7.1H10.5C4.8,13.8,0.3,18.4,0.3,24v13.8c0,5.6,4.6,10.2,10.2,10.2h17.6c5.6,0,10.2-4.6,10.2-10.2v-20
		v-4.1V0.1H29.8z"/>
	<path id="XMLID_10_" class="st1" d="M53.5,0.1v12.4h0v8.4v3.2v13.8c0,1.8,1.4,3.2,3.2,3.2h14.8c1.8,0,3.2-1.4,3.2-3.2V24.1l0,0
		c0-1.8-1.4-3.2-3.2-3.2H56.1v-7.1h16.8C78.5,13.8,83,18.4,83,24v13.8c0,5.6-4.6,10.2-10.2,10.2H55.2c-5.6,0-10.2-4.6-10.2-10.2v-20
		v-4.1V0.1H53.5z"/>
	<path id="XMLID_7_" class="st1" d="M138.1,24c0-5.6-4.6-10.2-10.2-10.2H122l-2.9,6.3l-2.9-6.3h-5.9c-5.6,0-10.2,4.6-10.2,10.2v4
		l6.3,2.9l-6.3,2.9v4.1c0,5.6,4.6,10.2,10.2,10.2h5.9l2.9-6.3l2.9,6.3h5.9c5.6,0,10.2-4.6,10.2-10.2v-4.1l-6.3-2.9l6.3-2.9V24z
		 M129.7,37.9c0,1.8-1.4,3.2-3.2,3.2h-7.4v0h-7.5c-1.8,0-3.2-1.4-3.2-3.2V24.1l0,0c0-1.8,1.4-3.2,3.2-3.2h7.4v0h7.5
		c1.8,0,3.2,1.4,3.2,3.2l0,0V37.9z"/>
	<circle id="XMLID_6_" class="st0" cx="93.4" cy="30.9" r="6.1"/>
	<circle id="XMLID_5_" class="st0" cx="144.7" cy="31" r="6.1"/>
	<circle id="XMLID_4_" class="st0" cx="119" cy="54.7" r="6.1"/>
	<polygon id="XMLID_3_" class="st1" points="170.7,13.8 163.6,13.8 163.6,0.1 155.6,0.1 155.6,13.8 152.4,13.8 152.4,20.9 
		155.6,20.9 155.6,48.1 163.6,48.1 163.6,20.9 170.7,20.9 	"/>
</g>
</svg>
